<svg width="16" height="16" viewBox="0 0 16 16" fill="none" xmlns="http://www.w3.org/2000/svg">
<path d="M7.65312 2.33267C7.68131 2.26389 7.72933 2.20505 7.79106 2.16364C7.8528 2.12223 7.92545 2.10012 7.99978 2.10012C8.07412 2.10012 8.14677 2.12223 8.2085 2.16364C8.27024 2.20505 8.31825 2.26389 8.34645 2.33267L9.76312 5.74C9.78964 5.80376 9.83323 5.85897 9.8891 5.89955C9.94497 5.94012 10.011 5.96451 10.0798 5.97L13.7585 6.26467C14.0911 6.29134 14.2258 6.70667 13.9725 6.92334L11.1698 9.32467C11.1174 9.36946 11.0784 9.42781 11.057 9.49331C11.0356 9.55881 11.0326 9.62893 11.0485 9.696L11.9051 13.286C11.9223 13.358 11.9178 13.4335 11.8921 13.503C11.8665 13.5725 11.8208 13.6328 11.7609 13.6763C11.701 13.7198 11.6295 13.7446 11.5555 13.7475C11.4815 13.7504 11.4083 13.7313 11.3451 13.6927L8.19512 11.7693C8.1363 11.7334 8.06871 11.7144 7.99978 11.7144C7.93086 11.7144 7.86327 11.7334 7.80445 11.7693L4.65445 13.6933C4.59129 13.732 4.51809 13.7511 4.44409 13.7482C4.37009 13.7452 4.29862 13.7205 4.2387 13.6769C4.17877 13.6334 4.13309 13.5731 4.10742 13.5037C4.08175 13.4342 4.07723 13.3587 4.09445 13.2867L4.95112 9.696C4.967 9.62894 4.96408 9.55879 4.94268 9.49327C4.92127 9.42776 4.88221 9.36942 4.82978 9.32467L2.02712 6.92334C1.97068 6.87523 1.92979 6.81145 1.90962 6.74008C1.88946 6.66871 1.89093 6.59297 1.91384 6.52244C1.93676 6.4519 1.98009 6.38976 2.03835 6.34387C2.09661 6.29799 2.16718 6.27042 2.24112 6.26467L5.91978 5.97C5.98862 5.96451 6.0546 5.94012 6.11047 5.89955C6.16634 5.85897 6.20993 5.80376 6.23645 5.74L7.65312 2.33267Z" stroke="black" stroke-width="1.5" stroke-linecap="round" stroke-linejoin="round"/>
</svg>
