<svg width="500" height="500" viewBox="0 0 500 500" fill="none" xmlns="http://www.w3.org/2000/svg">
<circle cx="250" cy="250" r="250" fill="white"/>
<path fill-rule="evenodd" clip-rule="evenodd" d="M178.456 120.698C177.929 123.832 176.68 131.393 175.681 137.5C174.683 143.607 173.76 148.777 173.631 148.988C173.503 149.2 178.454 149.472 184.634 149.594C196.979 149.836 198.293 150.135 202.221 153.589C205.64 156.595 206.885 159.537 206.925 164.704C206.956 168.691 206.74 169.561 204.68 173.734C202.202 178.758 198.344 183.086 194.892 184.716C191.003 186.551 186.869 186.883 167.901 186.883H149.138L147.171 190.828C143.161 198.868 131.962 222.697 131.962 223.191C131.962 223.477 153.243 223.711 180.55 223.722L229.137 223.743L231.472 227.581C235.451 234.12 242.674 239.799 250.882 242.84C253.984 243.989 256.307 244.36 261.859 244.594C270.579 244.96 276.742 243.846 283.415 240.694C292.259 236.518 293.231 235.526 311.727 211.825C316.7 205.453 322.313 198.221 324.201 195.753C326.089 193.285 332.787 184.71 339.083 176.696C354.342 157.279 357.112 153.729 362.37 146.851C364.828 143.636 370.796 135.997 375.633 129.876C380.469 123.754 385.026 117.902 385.758 116.872L387.09 115H283.252H179.415L178.456 120.698ZM393.217 126.807C393.023 127.867 391.801 136.097 390.501 145.097C389.201 154.097 387.48 165.669 386.677 170.812C385.873 175.955 383.775 190.024 382.013 202.078C380.251 214.131 378.024 228.963 377.063 235.038C376.102 241.112 374.265 253.341 372.981 262.213C371.697 271.085 368.954 289.653 366.886 303.474C364.817 317.295 361.789 337.808 360.157 349.058C358.524 360.308 357.042 370.006 356.863 370.609C356.458 371.968 356.681 371.841 362.789 367.251C371.592 360.635 391.388 346.29 392.097 346.012C392.959 345.675 395.242 347.265 401.079 352.267C403.52 354.36 408.63 358.701 412.434 361.916C416.238 365.13 420.905 369.141 422.806 370.828C424.706 372.515 426.466 373.896 426.715 373.896C427.261 373.896 427.373 374.886 423.747 347.597C422.146 335.544 419.544 315.951 417.966 304.058C414.883 280.836 412.091 260.167 408.888 236.851C407.785 228.815 405.422 211.195 403.639 197.695C400.569 174.467 398.765 160.888 395.45 136.086C394.658 130.166 393.912 125.223 393.791 125.101C393.67 124.98 393.412 125.747 393.217 126.807ZM358.376 167.989C346.014 183.685 333.16 200.076 329.81 204.416C315.238 223.291 303.219 237.925 299.319 241.541C296.107 244.519 293.6 246.166 288.682 248.531C285.143 250.234 280.662 252.047 278.723 252.562C270.551 254.732 259.22 254.748 250.896 252.603C245.797 251.289 238.567 247.768 234.269 244.506C230.962 241.996 225.026 235.595 224.336 233.794C224.111 233.207 217.696 233.052 193.765 233.052C177.108 233.052 163.479 233.213 163.479 233.411C163.479 233.608 162.829 237.619 162.036 242.323C161.242 247.028 159.021 261.659 157.101 274.838C155.18 288.016 152.69 304.584 151.568 311.656C147.621 336.538 140.717 382.805 140.717 384.376C140.717 384.816 170.816 385 242.842 385H344.966L345.23 383.685C345.374 382.962 345.901 379.477 346.4 375.942C347.908 365.255 354.839 318.142 356.374 308.149C357.163 303.006 358.463 294.065 359.262 288.279C360.864 276.681 363.668 257.735 370.375 213.182C377.953 162.847 381.202 140.507 381.023 139.969C380.928 139.685 370.737 152.294 358.376 167.989ZM118.831 160.509C114.646 163.111 112.857 166.754 113.886 170.58C114.593 173.209 117.785 176.174 120.423 176.652C121.473 176.843 137.661 176.922 156.396 176.828L190.46 176.656L192.812 174.026C194.105 172.58 195.802 170.014 196.583 168.325C197.823 165.641 197.916 164.996 197.329 163.213C196.013 159.22 198.072 159.416 157.366 159.418C122.499 159.42 120.49 159.477 118.831 160.509ZM89.9407 196.181C78.6247 196.542 77.2934 196.842 75.6213 199.397C73.1689 203.145 73.5144 207.086 76.551 210.001L78.3428 211.721L94.8158 211.892C111.196 212.062 111.299 212.056 113.308 210.711C117.223 208.092 118.307 203.189 115.812 199.377C113.652 196.075 109.453 195.556 89.9407 196.181ZM383.496 363.831C378.834 367.278 370.692 373.385 365.403 377.403L355.786 384.708L372.899 384.863C382.311 384.948 397.54 384.948 406.741 384.863L423.47 384.708L415.016 377.04C405.356 368.277 392.836 357.525 392.32 357.548C392.128 357.557 388.157 360.384 383.496 363.831Z" fill="black"/>
</svg>
