<svg width="579" height="282" viewBox="0 0 579 282" fill="none" xmlns="http://www.w3.org/2000/svg">
<mask id="path-1-outside-1_1_591" maskUnits="userSpaceOnUse" x="-1" y="0" width="580" height="283" fill="black">
<rect fill="white" x="-1" width="580" height="283"/>
<path d="M89.8829 107.592C99.7765 104.941 108.134 104.009 114.956 104.798C121.906 105.552 128.515 107.087 134.781 109.401L146.453 152.96C142.903 151.019 138.986 149.245 134.699 147.64C130.542 145.999 125.943 145.028 120.904 144.726C115.831 144.295 110.082 144.941 103.657 146.662C97.3613 148.349 91.8887 151.055 87.2403 154.779C82.7206 158.469 79.4911 163.122 77.5528 168.736C75.7085 174.188 75.7161 180.384 77.5753 187.322C79.4344 194.261 82.5428 199.694 86.9005 203.622C91.3521 207.387 96.4577 209.737 102.217 210.673C108.105 211.574 114.197 211.181 120.493 209.494C126.918 207.773 132.219 205.457 136.398 202.547C140.575 199.637 144.072 196.497 146.887 193.126C149.796 189.592 152.303 186.097 154.406 182.642L166.078 226.2C161.774 231.209 156.801 235.778 151.159 239.906C145.68 244.129 137.993 247.566 128.1 250.217C116.407 253.35 105.295 254.537 94.7628 253.778C84.2308 253.02 74.7159 250.405 66.2188 245.934C57.7218 241.462 50.4395 235.357 44.3721 227.618C38.3047 219.879 33.8247 210.613 30.9327 199.819C28.0408 189.026 27.2879 178.762 28.6729 169.026C30.058 159.291 33.3116 150.362 38.4346 142.241C43.5576 134.12 50.4899 127.099 59.2315 121.176C67.9731 115.253 78.1904 110.725 89.8829 107.592Z"/>
<path fill-rule="evenodd" clip-rule="evenodd" d="M480.77 146.151C491.948 143.156 501.793 142.378 510.304 143.815C518.908 145.09 526.034 148.552 531.679 154.2C537.418 159.686 541.578 167.248 544.16 176.885C544.608 178.555 545.055 180.225 545.503 181.896C545.916 183.437 546.184 184.949 546.306 186.432L479.943 204.213C480.564 205.519 481.25 206.713 482.001 207.794C484.112 210.533 486.547 212.429 489.308 213.479C492.196 214.496 495.376 214.539 498.845 213.609C503.47 212.37 507.137 210.63 509.842 208.391C512.512 206.023 514.24 203.218 515.024 199.979L550.777 196.182C548.571 206.964 543.864 215.869 536.657 222.896C529.545 229.759 519.821 234.843 507.486 238.148C495.922 241.247 485.465 242.052 476.114 240.563C466.893 239.041 459.121 235.477 452.799 229.872C446.571 224.104 442.166 216.401 439.584 206.765C436.967 196.999 436.867 188.143 439.282 180.197C441.663 172.123 446.355 165.22 453.357 159.487C460.325 153.627 469.463 149.181 480.77 146.151ZM493.022 169.517C490.913 168.842 488.574 168.85 486.004 169.538C482.535 170.468 479.931 172.06 478.194 174.315C476.423 176.443 475.488 179.379 475.39 183.123C475.357 184.027 475.372 184.987 475.438 186.002L501.866 178.921C501.085 176.699 500.063 174.838 498.797 173.34C497.184 171.431 495.259 170.157 493.022 169.517Z"/>
<path fill-rule="evenodd" clip-rule="evenodd" d="M222.395 120.909C234.66 120.909 245.622 123.132 255.28 127.578C264.939 132.024 272.529 138.387 278.048 146.666C282.673 153.603 285.359 161.671 286.108 170.869V147.022H323.023V160.791C325.55 156.002 329.075 152.144 333.598 149.218C338.121 146.291 343.707 144.828 350.358 144.828C357.941 144.828 363.727 146.026 367.718 148.42C371.842 150.681 374.769 154.139 376.498 158.795C379.957 154.538 384.213 151.146 389.268 148.619C394.323 146.092 399.976 144.828 406.229 144.828C413.944 144.828 419.797 146.158 423.788 148.818C427.912 151.479 430.772 155.337 432.368 160.392C433.964 165.446 434.762 171.632 434.762 178.948V238.81H395.853V182.939C395.853 178.816 395.254 175.623 394.057 173.361C392.859 170.967 390.731 169.77 387.672 169.77C386.076 169.77 384.613 170.236 383.282 171.167C381.952 172.098 380.887 173.561 380.089 175.557C379.291 177.419 378.893 179.88 378.893 182.939V238.81H339.982V182.939C339.982 178.816 339.384 175.623 338.187 173.361C336.989 170.967 334.861 169.77 331.802 169.77C330.206 169.77 328.742 170.236 327.412 171.167C326.082 172.098 325.018 173.561 324.22 175.557C323.422 177.419 323.023 179.88 323.023 182.939V238.81H286.108V181.729C285.359 190.819 282.673 198.832 278.048 205.77C272.529 214.048 264.939 220.411 255.28 224.857C245.622 229.303 234.66 231.526 222.395 231.526C210.129 231.526 199.167 229.304 189.508 224.857C179.849 220.411 172.261 214.048 166.741 205.77C161.222 197.491 158.462 187.678 158.462 176.333C158.462 171.285 158.994 166.547 160.058 162.119C160.417 162.139 160.78 162.15 161.145 162.15C166.869 162.15 172.006 159.639 175.518 155.66C179.029 159.64 184.167 162.15 189.892 162.15C200.476 162.15 209.056 153.571 209.056 142.986C209.056 142.148 209.002 141.321 208.898 140.511C214.712 137.22 218.639 130.98 218.639 123.821C218.639 122.859 218.567 121.913 218.43 120.989C219.736 120.936 221.058 120.909 222.395 120.909ZM222.395 156.555C219.328 156.555 216.415 157.321 213.655 158.854C211.049 160.388 208.902 162.612 207.216 165.524C205.53 168.437 204.687 172.041 204.687 176.333C204.687 180.626 205.53 184.229 207.216 187.142C208.902 190.054 211.049 192.277 213.655 193.811C216.415 195.19 219.328 195.881 222.395 195.881C225.461 195.881 228.297 195.19 230.903 193.811C233.663 192.277 235.886 190.054 237.572 187.142C239.259 184.229 240.103 180.626 240.103 176.333C240.103 172.04 239.259 168.437 237.572 165.524C235.886 162.612 233.663 160.388 230.903 158.854C228.297 157.322 225.461 156.555 222.395 156.555Z"/>
<path d="M181.995 84.458L213.732 28H229.484L177.856 113.09L152.788 28H167.852L181.995 84.458Z"/>
<path fill-rule="evenodd" clip-rule="evenodd" d="M241.941 54.4473C245.544 54.4473 248.535 55.2139 250.911 56.7471C253.364 58.2802 255.319 60.3498 256.775 62.9561C257.334 63.9551 257.812 65.0051 258.213 66.1055L259.995 55.5967H272.068L262.869 108.49H251.025L252.546 99.5205C252.027 100.196 251.482 100.848 250.911 101.477C248.688 104.006 246.082 106 243.092 107.456C240.179 108.836 236.959 109.525 233.433 109.525C228.527 109.525 224.388 108.299 221.015 105.846C217.718 103.316 215.304 99.9813 213.771 95.8418C212.238 91.6257 211.815 87.0265 212.505 82.0439C213.272 76.8312 215.035 72.1551 217.795 68.0156C220.631 63.7996 224.157 60.4647 228.373 58.0117C232.589 55.5588 237.112 54.3707 241.941 54.4473ZM243.781 65.2559C240.792 65.1793 237.955 65.8688 235.273 67.3252C232.666 68.7817 230.443 70.8136 228.604 73.4199C226.84 76.0263 225.691 78.901 225.154 82.0439C224.771 84.9569 224.962 87.7169 225.729 90.3232C226.572 92.8527 227.952 94.8839 229.868 96.417C231.861 97.9501 234.353 98.7168 237.343 98.7168C239.336 98.7934 241.291 98.4106 243.207 97.5674C245.2 96.6475 247.002 95.4208 248.611 93.8877C250.298 92.3545 251.715 90.5908 252.865 88.5977C254.015 86.528 254.782 84.3436 255.165 82.0439C255.472 79.821 255.434 77.7127 255.051 75.7197C254.668 73.7266 253.939 71.9628 252.865 70.4297C251.869 68.8969 250.604 67.6708 249.071 66.751C247.615 65.8311 245.851 65.3325 243.781 65.2559Z"/>
<path fill-rule="evenodd" clip-rule="evenodd" d="M399.558 54.4473C404.847 54.4473 409.37 55.7116 413.126 58.2412C416.959 60.6942 419.795 64.029 421.635 68.2451C423.475 72.3846 424.049 76.9845 423.359 82.0439C422.669 87.2566 420.83 91.9328 417.84 96.0723C414.85 100.212 411.094 103.508 406.571 105.961C402.049 108.337 397.104 109.525 391.738 109.525C386.526 109.525 382.003 108.299 378.17 105.846C374.337 103.393 371.501 100.097 369.661 95.957C367.821 91.7409 367.246 87.1033 367.936 82.0439C368.626 76.7546 370.427 72.0399 373.34 67.9004C376.33 63.7609 380.087 60.5033 384.609 58.127C389.209 55.674 394.192 54.4473 399.558 54.4473ZM398.523 65.3711C395.533 65.2944 392.734 66.0225 390.128 67.5557C387.522 69.0887 385.337 71.12 383.574 73.6494C381.888 76.1791 380.815 78.9776 380.355 82.0439C379.971 84.8801 380.201 87.5632 381.044 90.0928C381.887 92.6223 383.267 94.692 385.184 96.3018C387.177 97.8349 389.669 98.6016 392.658 98.6016C395.725 98.6015 398.561 97.8735 401.167 96.417C403.773 94.9605 405.92 92.9672 407.607 90.4375C409.37 87.8312 410.482 85.0335 410.941 82.0439C411.325 79.1311 411.094 76.4481 410.251 73.9951C409.408 71.4654 407.989 69.395 405.996 67.7852C404.003 66.1756 401.512 65.3711 398.523 65.3711Z"/>
<path d="M343.623 54.4473C347.609 54.4473 350.637 55.405 352.707 57.3213C354.777 59.161 356.118 61.6144 356.732 64.6807C357.345 67.747 357.422 71.1588 356.962 74.915L351.327 108.49H338.909L344.658 76.2939C344.888 74.2244 344.888 72.3079 344.658 70.5449C344.505 68.7054 343.969 67.2489 343.049 66.1758C342.129 65.1026 340.596 64.5655 338.449 64.5654C336.226 64.5654 334.233 65.064 332.47 66.0605C330.707 67.0571 329.25 68.4371 328.101 70.2002C327.027 71.8867 326.298 73.8414 325.915 76.0645L320.397 108.49H308.207L313.842 76.2939C314.072 74.2244 314.072 72.3079 313.842 70.5449C313.689 68.7054 313.152 67.2489 312.232 66.1758C311.313 65.1026 309.779 64.5655 307.633 64.5654C305.487 64.5654 303.532 65.0641 301.769 66.0605C300.082 66.9804 298.664 68.2834 297.514 69.9697C296.441 71.5795 295.712 73.4967 295.329 75.7197L289.694 108.49H277.506L286.705 55.5967H298.778L297.629 62.9561C298.779 61.193 300.12 59.6982 301.653 58.4717C303.187 57.1685 304.873 56.1714 306.713 55.4814C308.553 54.7916 310.584 54.4473 312.807 54.4473C315.413 54.4473 317.598 54.8687 319.361 55.7119C321.201 56.4785 322.657 57.5904 323.731 59.0469C324.88 60.5033 325.647 62.2277 326.03 64.2207C328.177 61.2312 330.706 58.8549 333.619 57.0918C336.609 55.3287 339.944 54.4473 343.623 54.4473Z"/>
</mask>
<path d="M89.8829 107.592C99.7765 104.941 108.134 104.009 114.956 104.798C121.906 105.552 128.515 107.087 134.781 109.401L146.453 152.96C142.903 151.019 138.986 149.245 134.699 147.64C130.542 145.999 125.943 145.028 120.904 144.726C115.831 144.295 110.082 144.941 103.657 146.662C97.3613 148.349 91.8887 151.055 87.2403 154.779C82.7206 158.469 79.4911 163.122 77.5528 168.736C75.7085 174.188 75.7161 180.384 77.5753 187.322C79.4344 194.261 82.5428 199.694 86.9005 203.622C91.3521 207.387 96.4577 209.737 102.217 210.673C108.105 211.574 114.197 211.181 120.493 209.494C126.918 207.773 132.219 205.457 136.398 202.547C140.575 199.637 144.072 196.497 146.887 193.126C149.796 189.592 152.303 186.097 154.406 182.642L166.078 226.2C161.774 231.209 156.801 235.778 151.159 239.906C145.68 244.129 137.993 247.566 128.1 250.217C116.407 253.35 105.295 254.537 94.7628 253.778C84.2308 253.02 74.7159 250.405 66.2188 245.934C57.7218 241.462 50.4395 235.357 44.3721 227.618C38.3047 219.879 33.8247 210.613 30.9327 199.819C28.0408 189.026 27.2879 178.762 28.6729 169.026C30.058 159.291 33.3116 150.362 38.4346 142.241C43.5576 134.12 50.4899 127.099 59.2315 121.176C67.9731 115.253 78.1904 110.725 89.8829 107.592Z" fill="#F5B847"/>
<path fill-rule="evenodd" clip-rule="evenodd" d="M480.77 146.151C491.948 143.156 501.793 142.378 510.304 143.815C518.908 145.09 526.034 148.552 531.679 154.2C537.418 159.686 541.578 167.248 544.16 176.885C544.608 178.555 545.055 180.225 545.503 181.896C545.916 183.437 546.184 184.949 546.306 186.432L479.943 204.213C480.564 205.519 481.25 206.713 482.001 207.794C484.112 210.533 486.547 212.429 489.308 213.479C492.196 214.496 495.376 214.539 498.845 213.609C503.47 212.37 507.137 210.63 509.842 208.391C512.512 206.023 514.24 203.218 515.024 199.979L550.777 196.182C548.571 206.964 543.864 215.869 536.657 222.896C529.545 229.759 519.821 234.843 507.486 238.148C495.922 241.247 485.465 242.052 476.114 240.563C466.893 239.041 459.121 235.477 452.799 229.872C446.571 224.104 442.166 216.401 439.584 206.765C436.967 196.999 436.867 188.143 439.282 180.197C441.663 172.123 446.355 165.22 453.357 159.487C460.325 153.627 469.463 149.181 480.77 146.151ZM493.022 169.517C490.913 168.842 488.574 168.85 486.004 169.538C482.535 170.468 479.931 172.06 478.194 174.315C476.423 176.443 475.488 179.379 475.39 183.123C475.357 184.027 475.372 184.987 475.438 186.002L501.866 178.921C501.085 176.699 500.063 174.838 498.797 173.34C497.184 171.431 495.259 170.157 493.022 169.517Z" fill="#F5B847"/>
<path fill-rule="evenodd" clip-rule="evenodd" d="M222.395 120.909C234.66 120.909 245.622 123.132 255.28 127.578C264.939 132.024 272.529 138.387 278.048 146.666C282.673 153.603 285.359 161.671 286.108 170.869V147.022H323.023V160.791C325.55 156.002 329.075 152.144 333.598 149.218C338.121 146.291 343.707 144.828 350.358 144.828C357.941 144.828 363.727 146.026 367.718 148.42C371.842 150.681 374.769 154.139 376.498 158.795C379.957 154.538 384.213 151.146 389.268 148.619C394.323 146.092 399.976 144.828 406.229 144.828C413.944 144.828 419.797 146.158 423.788 148.818C427.912 151.479 430.772 155.337 432.368 160.392C433.964 165.446 434.762 171.632 434.762 178.948V238.81H395.853V182.939C395.853 178.816 395.254 175.623 394.057 173.361C392.859 170.967 390.731 169.77 387.672 169.77C386.076 169.77 384.613 170.236 383.282 171.167C381.952 172.098 380.887 173.561 380.089 175.557C379.291 177.419 378.893 179.88 378.893 182.939V238.81H339.982V182.939C339.982 178.816 339.384 175.623 338.187 173.361C336.989 170.967 334.861 169.77 331.802 169.77C330.206 169.77 328.742 170.236 327.412 171.167C326.082 172.098 325.018 173.561 324.22 175.557C323.422 177.419 323.023 179.88 323.023 182.939V238.81H286.108V181.729C285.359 190.819 282.673 198.832 278.048 205.77C272.529 214.048 264.939 220.411 255.28 224.857C245.622 229.303 234.66 231.526 222.395 231.526C210.129 231.526 199.167 229.304 189.508 224.857C179.849 220.411 172.261 214.048 166.741 205.77C161.222 197.491 158.462 187.678 158.462 176.333C158.462 171.285 158.994 166.547 160.058 162.119C160.417 162.139 160.78 162.15 161.145 162.15C166.869 162.15 172.006 159.639 175.518 155.66C179.029 159.64 184.167 162.15 189.892 162.15C200.476 162.15 209.056 153.571 209.056 142.986C209.056 142.148 209.002 141.321 208.898 140.511C214.712 137.22 218.639 130.98 218.639 123.821C218.639 122.859 218.567 121.913 218.43 120.989C219.736 120.936 221.058 120.909 222.395 120.909ZM222.395 156.555C219.328 156.555 216.415 157.321 213.655 158.854C211.049 160.388 208.902 162.612 207.216 165.524C205.53 168.437 204.687 172.041 204.687 176.333C204.687 180.626 205.53 184.229 207.216 187.142C208.902 190.054 211.049 192.277 213.655 193.811C216.415 195.19 219.328 195.881 222.395 195.881C225.461 195.881 228.297 195.19 230.903 193.811C233.663 192.277 235.886 190.054 237.572 187.142C239.259 184.229 240.103 180.626 240.103 176.333C240.103 172.04 239.259 168.437 237.572 165.524C235.886 162.612 233.663 160.388 230.903 158.854C228.297 157.322 225.461 156.555 222.395 156.555Z" fill="#F5B847"/>
<path d="M181.995 84.458L213.732 28H229.484L177.856 113.09L152.788 28H167.852L181.995 84.458Z" fill="#F5B847"/>
<path fill-rule="evenodd" clip-rule="evenodd" d="M241.941 54.4473C245.544 54.4473 248.535 55.2139 250.911 56.7471C253.364 58.2802 255.319 60.3498 256.775 62.9561C257.334 63.9551 257.812 65.0051 258.213 66.1055L259.995 55.5967H272.068L262.869 108.49H251.025L252.546 99.5205C252.027 100.196 251.482 100.848 250.911 101.477C248.688 104.006 246.082 106 243.092 107.456C240.179 108.836 236.959 109.525 233.433 109.525C228.527 109.525 224.388 108.299 221.015 105.846C217.718 103.316 215.304 99.9813 213.771 95.8418C212.238 91.6257 211.815 87.0265 212.505 82.0439C213.272 76.8312 215.035 72.1551 217.795 68.0156C220.631 63.7996 224.157 60.4647 228.373 58.0117C232.589 55.5588 237.112 54.3707 241.941 54.4473ZM243.781 65.2559C240.792 65.1793 237.955 65.8688 235.273 67.3252C232.666 68.7817 230.443 70.8136 228.604 73.4199C226.84 76.0263 225.691 78.901 225.154 82.0439C224.771 84.9569 224.962 87.7169 225.729 90.3232C226.572 92.8527 227.952 94.8839 229.868 96.417C231.861 97.9501 234.353 98.7168 237.343 98.7168C239.336 98.7934 241.291 98.4106 243.207 97.5674C245.2 96.6475 247.002 95.4208 248.611 93.8877C250.298 92.3545 251.715 90.5908 252.865 88.5977C254.015 86.528 254.782 84.3436 255.165 82.0439C255.472 79.821 255.434 77.7127 255.051 75.7197C254.668 73.7266 253.939 71.9628 252.865 70.4297C251.869 68.8969 250.604 67.6708 249.071 66.751C247.615 65.8311 245.851 65.3325 243.781 65.2559Z" fill="#F5B847"/>
<path fill-rule="evenodd" clip-rule="evenodd" d="M399.558 54.4473C404.847 54.4473 409.37 55.7116 413.126 58.2412C416.959 60.6942 419.795 64.029 421.635 68.2451C423.475 72.3846 424.049 76.9845 423.359 82.0439C422.669 87.2566 420.83 91.9328 417.84 96.0723C414.85 100.212 411.094 103.508 406.571 105.961C402.049 108.337 397.104 109.525 391.738 109.525C386.526 109.525 382.003 108.299 378.17 105.846C374.337 103.393 371.501 100.097 369.661 95.957C367.821 91.7409 367.246 87.1033 367.936 82.0439C368.626 76.7546 370.427 72.0399 373.34 67.9004C376.33 63.7609 380.087 60.5033 384.609 58.127C389.209 55.674 394.192 54.4473 399.558 54.4473ZM398.523 65.3711C395.533 65.2944 392.734 66.0225 390.128 67.5557C387.522 69.0887 385.337 71.12 383.574 73.6494C381.888 76.1791 380.815 78.9776 380.355 82.0439C379.971 84.8801 380.201 87.5632 381.044 90.0928C381.887 92.6223 383.267 94.692 385.184 96.3018C387.177 97.8349 389.669 98.6016 392.658 98.6016C395.725 98.6015 398.561 97.8735 401.167 96.417C403.773 94.9605 405.92 92.9672 407.607 90.4375C409.37 87.8312 410.482 85.0335 410.941 82.0439C411.325 79.1311 411.094 76.4481 410.251 73.9951C409.408 71.4654 407.989 69.395 405.996 67.7852C404.003 66.1756 401.512 65.3711 398.523 65.3711Z" fill="#F5B847"/>
<path d="M343.623 54.4473C347.609 54.4473 350.637 55.405 352.707 57.3213C354.777 59.161 356.118 61.6144 356.732 64.6807C357.345 67.747 357.422 71.1588 356.962 74.915L351.327 108.49H338.909L344.658 76.2939C344.888 74.2244 344.888 72.3079 344.658 70.5449C344.505 68.7054 343.969 67.2489 343.049 66.1758C342.129 65.1026 340.596 64.5655 338.449 64.5654C336.226 64.5654 334.233 65.064 332.47 66.0605C330.707 67.0571 329.25 68.4371 328.101 70.2002C327.027 71.8867 326.298 73.8414 325.915 76.0645L320.397 108.49H308.207L313.842 76.2939C314.072 74.2244 314.072 72.3079 313.842 70.5449C313.689 68.7054 313.152 67.2489 312.232 66.1758C311.313 65.1026 309.779 64.5655 307.633 64.5654C305.487 64.5654 303.532 65.0641 301.769 66.0605C300.082 66.9804 298.664 68.2834 297.514 69.9697C296.441 71.5795 295.712 73.4967 295.329 75.7197L289.694 108.49H277.506L286.705 55.5967H298.778L297.629 62.9561C298.779 61.193 300.12 59.6982 301.653 58.4717C303.187 57.1685 304.873 56.1714 306.713 55.4814C308.553 54.7916 310.584 54.4473 312.807 54.4473C315.413 54.4473 317.598 54.8687 319.361 55.7119C321.201 56.4785 322.657 57.5904 323.731 59.0469C324.88 60.5033 325.647 62.2277 326.03 64.2207C328.177 61.2312 330.706 58.8549 333.619 57.0918C336.609 55.3287 339.944 54.4473 343.623 54.4473Z" fill="#F5B847"/>
<path d="M89.8829 107.592C99.7765 104.941 108.134 104.009 114.956 104.798C121.906 105.552 128.515 107.087 134.781 109.401L146.453 152.96C142.903 151.019 138.986 149.245 134.699 147.64C130.542 145.999 125.943 145.028 120.904 144.726C115.831 144.295 110.082 144.941 103.657 146.662C97.3613 148.349 91.8887 151.055 87.2403 154.779C82.7206 158.469 79.4911 163.122 77.5528 168.736C75.7085 174.188 75.7161 180.384 77.5753 187.322C79.4344 194.261 82.5428 199.694 86.9005 203.622C91.3521 207.387 96.4577 209.737 102.217 210.673C108.105 211.574 114.197 211.181 120.493 209.494C126.918 207.773 132.219 205.457 136.398 202.547C140.575 199.637 144.072 196.497 146.887 193.126C149.796 189.592 152.303 186.097 154.406 182.642L166.078 226.2C161.774 231.209 156.801 235.778 151.159 239.906C145.68 244.129 137.993 247.566 128.1 250.217C116.407 253.35 105.295 254.537 94.7628 253.778C84.2308 253.02 74.7159 250.405 66.2188 245.934C57.7218 241.462 50.4395 235.357 44.3721 227.618C38.3047 219.879 33.8247 210.613 30.9327 199.819C28.0408 189.026 27.2879 178.762 28.6729 169.026C30.058 159.291 33.3116 150.362 38.4346 142.241C43.5576 134.12 50.4899 127.099 59.2315 121.176C67.9731 115.253 78.1904 110.725 89.8829 107.592Z" stroke="black" stroke-width="56" stroke-linejoin="round" mask="url(#path-1-outside-1_1_591)"/>
<path d="M89.8829 107.592C99.7765 104.941 108.134 104.009 114.956 104.798C121.906 105.552 128.515 107.087 134.781 109.401L146.453 152.96C142.903 151.019 138.986 149.245 134.699 147.64C130.542 145.999 125.943 145.028 120.904 144.726C115.831 144.295 110.082 144.941 103.657 146.662C97.3613 148.349 91.8887 151.055 87.2403 154.779C82.7206 158.469 79.4911 163.122 77.5528 168.736C75.7085 174.188 75.7161 180.384 77.5753 187.322C79.4344 194.261 82.5428 199.694 86.9005 203.622C91.3521 207.387 96.4577 209.737 102.217 210.673C108.105 211.574 114.197 211.181 120.493 209.494C126.918 207.773 132.219 205.457 136.398 202.547C140.575 199.637 144.072 196.497 146.887 193.126C149.796 189.592 152.303 186.097 154.406 182.642L166.078 226.2C161.774 231.209 156.801 235.778 151.159 239.906C145.68 244.129 137.993 247.566 128.1 250.217C116.407 253.35 105.295 254.537 94.7628 253.778C84.2308 253.02 74.7159 250.405 66.2188 245.934C57.7218 241.462 50.4395 235.357 44.3721 227.618C38.3047 219.879 33.8247 210.613 30.9327 199.819C28.0408 189.026 27.2879 178.762 28.6729 169.026C30.058 159.291 33.3116 150.362 38.4346 142.241C43.5576 134.12 50.4899 127.099 59.2315 121.176C67.9731 115.253 78.1904 110.725 89.8829 107.592Z" stroke="white" stroke-width="56" stroke-linejoin="round" mask="url(#path-1-outside-1_1_591)"/>
<path fill-rule="evenodd" clip-rule="evenodd" d="M480.77 146.151C491.948 143.156 501.793 142.378 510.304 143.815C518.908 145.09 526.034 148.552 531.679 154.2C537.418 159.686 541.578 167.248 544.16 176.885C544.608 178.555 545.055 180.225 545.503 181.896C545.916 183.437 546.184 184.949 546.306 186.432L479.943 204.213C480.564 205.519 481.25 206.713 482.001 207.794C484.112 210.533 486.547 212.429 489.308 213.479C492.196 214.496 495.376 214.539 498.845 213.609C503.47 212.37 507.137 210.63 509.842 208.391C512.512 206.023 514.24 203.218 515.024 199.979L550.777 196.182C548.571 206.964 543.864 215.869 536.657 222.896C529.545 229.759 519.821 234.843 507.486 238.148C495.922 241.247 485.465 242.052 476.114 240.563C466.893 239.041 459.121 235.477 452.799 229.872C446.571 224.104 442.166 216.401 439.584 206.765C436.967 196.999 436.867 188.143 439.282 180.197C441.663 172.123 446.355 165.22 453.357 159.487C460.325 153.627 469.463 149.181 480.77 146.151ZM493.022 169.517C490.913 168.842 488.574 168.85 486.004 169.538C482.535 170.468 479.931 172.06 478.194 174.315C476.423 176.443 475.488 179.379 475.39 183.123C475.357 184.027 475.372 184.987 475.438 186.002L501.866 178.921C501.085 176.699 500.063 174.838 498.797 173.34C497.184 171.431 495.259 170.157 493.022 169.517Z" stroke="black" stroke-width="56" stroke-linejoin="round" mask="url(#path-1-outside-1_1_591)"/>
<path fill-rule="evenodd" clip-rule="evenodd" d="M480.77 146.151C491.948 143.156 501.793 142.378 510.304 143.815C518.908 145.09 526.034 148.552 531.679 154.2C537.418 159.686 541.578 167.248 544.16 176.885C544.608 178.555 545.055 180.225 545.503 181.896C545.916 183.437 546.184 184.949 546.306 186.432L479.943 204.213C480.564 205.519 481.25 206.713 482.001 207.794C484.112 210.533 486.547 212.429 489.308 213.479C492.196 214.496 495.376 214.539 498.845 213.609C503.47 212.37 507.137 210.63 509.842 208.391C512.512 206.023 514.24 203.218 515.024 199.979L550.777 196.182C548.571 206.964 543.864 215.869 536.657 222.896C529.545 229.759 519.821 234.843 507.486 238.148C495.922 241.247 485.465 242.052 476.114 240.563C466.893 239.041 459.121 235.477 452.799 229.872C446.571 224.104 442.166 216.401 439.584 206.765C436.967 196.999 436.867 188.143 439.282 180.197C441.663 172.123 446.355 165.22 453.357 159.487C460.325 153.627 469.463 149.181 480.77 146.151ZM493.022 169.517C490.913 168.842 488.574 168.85 486.004 169.538C482.535 170.468 479.931 172.06 478.194 174.315C476.423 176.443 475.488 179.379 475.39 183.123C475.357 184.027 475.372 184.987 475.438 186.002L501.866 178.921C501.085 176.699 500.063 174.838 498.797 173.34C497.184 171.431 495.259 170.157 493.022 169.517Z" stroke="white" stroke-width="56" stroke-linejoin="round" mask="url(#path-1-outside-1_1_591)"/>
<path fill-rule="evenodd" clip-rule="evenodd" d="M222.395 120.909C234.66 120.909 245.622 123.132 255.28 127.578C264.939 132.024 272.529 138.387 278.048 146.666C282.673 153.603 285.359 161.671 286.108 170.869V147.022H323.023V160.791C325.55 156.002 329.075 152.144 333.598 149.218C338.121 146.291 343.707 144.828 350.358 144.828C357.941 144.828 363.727 146.026 367.718 148.42C371.842 150.681 374.769 154.139 376.498 158.795C379.957 154.538 384.213 151.146 389.268 148.619C394.323 146.092 399.976 144.828 406.229 144.828C413.944 144.828 419.797 146.158 423.788 148.818C427.912 151.479 430.772 155.337 432.368 160.392C433.964 165.446 434.762 171.632 434.762 178.948V238.81H395.853V182.939C395.853 178.816 395.254 175.623 394.057 173.361C392.859 170.967 390.731 169.77 387.672 169.77C386.076 169.77 384.613 170.236 383.282 171.167C381.952 172.098 380.887 173.561 380.089 175.557C379.291 177.419 378.893 179.88 378.893 182.939V238.81H339.982V182.939C339.982 178.816 339.384 175.623 338.187 173.361C336.989 170.967 334.861 169.77 331.802 169.77C330.206 169.77 328.742 170.236 327.412 171.167C326.082 172.098 325.018 173.561 324.22 175.557C323.422 177.419 323.023 179.88 323.023 182.939V238.81H286.108V181.729C285.359 190.819 282.673 198.832 278.048 205.77C272.529 214.048 264.939 220.411 255.28 224.857C245.622 229.303 234.66 231.526 222.395 231.526C210.129 231.526 199.167 229.304 189.508 224.857C179.849 220.411 172.261 214.048 166.741 205.77C161.222 197.491 158.462 187.678 158.462 176.333C158.462 171.285 158.994 166.547 160.058 162.119C160.417 162.139 160.78 162.15 161.145 162.15C166.869 162.15 172.006 159.639 175.518 155.66C179.029 159.64 184.167 162.15 189.892 162.15C200.476 162.15 209.056 153.571 209.056 142.986C209.056 142.148 209.002 141.321 208.898 140.511C214.712 137.22 218.639 130.98 218.639 123.821C218.639 122.859 218.567 121.913 218.43 120.989C219.736 120.936 221.058 120.909 222.395 120.909ZM222.395 156.555C219.328 156.555 216.415 157.321 213.655 158.854C211.049 160.388 208.902 162.612 207.216 165.524C205.53 168.437 204.687 172.041 204.687 176.333C204.687 180.626 205.53 184.229 207.216 187.142C208.902 190.054 211.049 192.277 213.655 193.811C216.415 195.19 219.328 195.881 222.395 195.881C225.461 195.881 228.297 195.19 230.903 193.811C233.663 192.277 235.886 190.054 237.572 187.142C239.259 184.229 240.103 180.626 240.103 176.333C240.103 172.04 239.259 168.437 237.572 165.524C235.886 162.612 233.663 160.388 230.903 158.854C228.297 157.322 225.461 156.555 222.395 156.555Z" stroke="black" stroke-width="56" stroke-linejoin="round" mask="url(#path-1-outside-1_1_591)"/>
<path fill-rule="evenodd" clip-rule="evenodd" d="M222.395 120.909C234.66 120.909 245.622 123.132 255.28 127.578C264.939 132.024 272.529 138.387 278.048 146.666C282.673 153.603 285.359 161.671 286.108 170.869V147.022H323.023V160.791C325.55 156.002 329.075 152.144 333.598 149.218C338.121 146.291 343.707 144.828 350.358 144.828C357.941 144.828 363.727 146.026 367.718 148.42C371.842 150.681 374.769 154.139 376.498 158.795C379.957 154.538 384.213 151.146 389.268 148.619C394.323 146.092 399.976 144.828 406.229 144.828C413.944 144.828 419.797 146.158 423.788 148.818C427.912 151.479 430.772 155.337 432.368 160.392C433.964 165.446 434.762 171.632 434.762 178.948V238.81H395.853V182.939C395.853 178.816 395.254 175.623 394.057 173.361C392.859 170.967 390.731 169.77 387.672 169.77C386.076 169.77 384.613 170.236 383.282 171.167C381.952 172.098 380.887 173.561 380.089 175.557C379.291 177.419 378.893 179.88 378.893 182.939V238.81H339.982V182.939C339.982 178.816 339.384 175.623 338.187 173.361C336.989 170.967 334.861 169.77 331.802 169.77C330.206 169.77 328.742 170.236 327.412 171.167C326.082 172.098 325.018 173.561 324.22 175.557C323.422 177.419 323.023 179.88 323.023 182.939V238.81H286.108V181.729C285.359 190.819 282.673 198.832 278.048 205.77C272.529 214.048 264.939 220.411 255.28 224.857C245.622 229.303 234.66 231.526 222.395 231.526C210.129 231.526 199.167 229.304 189.508 224.857C179.849 220.411 172.261 214.048 166.741 205.77C161.222 197.491 158.462 187.678 158.462 176.333C158.462 171.285 158.994 166.547 160.058 162.119C160.417 162.139 160.78 162.15 161.145 162.15C166.869 162.15 172.006 159.639 175.518 155.66C179.029 159.64 184.167 162.15 189.892 162.15C200.476 162.15 209.056 153.571 209.056 142.986C209.056 142.148 209.002 141.321 208.898 140.511C214.712 137.22 218.639 130.98 218.639 123.821C218.639 122.859 218.567 121.913 218.43 120.989C219.736 120.936 221.058 120.909 222.395 120.909ZM222.395 156.555C219.328 156.555 216.415 157.321 213.655 158.854C211.049 160.388 208.902 162.612 207.216 165.524C205.53 168.437 204.687 172.041 204.687 176.333C204.687 180.626 205.53 184.229 207.216 187.142C208.902 190.054 211.049 192.277 213.655 193.811C216.415 195.19 219.328 195.881 222.395 195.881C225.461 195.881 228.297 195.19 230.903 193.811C233.663 192.277 235.886 190.054 237.572 187.142C239.259 184.229 240.103 180.626 240.103 176.333C240.103 172.04 239.259 168.437 237.572 165.524C235.886 162.612 233.663 160.388 230.903 158.854C228.297 157.322 225.461 156.555 222.395 156.555Z" stroke="white" stroke-width="56" stroke-linejoin="round" mask="url(#path-1-outside-1_1_591)"/>
<path d="M181.995 84.458L213.732 28H229.484L177.856 113.09L152.788 28H167.852L181.995 84.458Z" stroke="black" stroke-width="56" stroke-linejoin="round" mask="url(#path-1-outside-1_1_591)"/>
<path d="M181.995 84.458L213.732 28H229.484L177.856 113.09L152.788 28H167.852L181.995 84.458Z" stroke="white" stroke-width="56" stroke-linejoin="round" mask="url(#path-1-outside-1_1_591)"/>
<path fill-rule="evenodd" clip-rule="evenodd" d="M241.941 54.4473C245.544 54.4473 248.535 55.2139 250.911 56.7471C253.364 58.2802 255.319 60.3498 256.775 62.9561C257.334 63.9551 257.812 65.0051 258.213 66.1055L259.995 55.5967H272.068L262.869 108.49H251.025L252.546 99.5205C252.027 100.196 251.482 100.848 250.911 101.477C248.688 104.006 246.082 106 243.092 107.456C240.179 108.836 236.959 109.525 233.433 109.525C228.527 109.525 224.388 108.299 221.015 105.846C217.718 103.316 215.304 99.9813 213.771 95.8418C212.238 91.6257 211.815 87.0265 212.505 82.0439C213.272 76.8312 215.035 72.1551 217.795 68.0156C220.631 63.7996 224.157 60.4647 228.373 58.0117C232.589 55.5588 237.112 54.3707 241.941 54.4473ZM243.781 65.2559C240.792 65.1793 237.955 65.8688 235.273 67.3252C232.666 68.7817 230.443 70.8136 228.604 73.4199C226.84 76.0263 225.691 78.901 225.154 82.0439C224.771 84.9569 224.962 87.7169 225.729 90.3232C226.572 92.8527 227.952 94.8839 229.868 96.417C231.861 97.9501 234.353 98.7168 237.343 98.7168C239.336 98.7934 241.291 98.4106 243.207 97.5674C245.2 96.6475 247.002 95.4208 248.611 93.8877C250.298 92.3545 251.715 90.5908 252.865 88.5977C254.015 86.528 254.782 84.3436 255.165 82.0439C255.472 79.821 255.434 77.7127 255.051 75.7197C254.668 73.7266 253.939 71.9628 252.865 70.4297C251.869 68.8969 250.604 67.6708 249.071 66.751C247.615 65.8311 245.851 65.3325 243.781 65.2559Z" stroke="black" stroke-width="56" stroke-linejoin="round" mask="url(#path-1-outside-1_1_591)"/>
<path fill-rule="evenodd" clip-rule="evenodd" d="M241.941 54.4473C245.544 54.4473 248.535 55.2139 250.911 56.7471C253.364 58.2802 255.319 60.3498 256.775 62.9561C257.334 63.9551 257.812 65.0051 258.213 66.1055L259.995 55.5967H272.068L262.869 108.49H251.025L252.546 99.5205C252.027 100.196 251.482 100.848 250.911 101.477C248.688 104.006 246.082 106 243.092 107.456C240.179 108.836 236.959 109.525 233.433 109.525C228.527 109.525 224.388 108.299 221.015 105.846C217.718 103.316 215.304 99.9813 213.771 95.8418C212.238 91.6257 211.815 87.0265 212.505 82.0439C213.272 76.8312 215.035 72.1551 217.795 68.0156C220.631 63.7996 224.157 60.4647 228.373 58.0117C232.589 55.5588 237.112 54.3707 241.941 54.4473ZM243.781 65.2559C240.792 65.1793 237.955 65.8688 235.273 67.3252C232.666 68.7817 230.443 70.8136 228.604 73.4199C226.84 76.0263 225.691 78.901 225.154 82.0439C224.771 84.9569 224.962 87.7169 225.729 90.3232C226.572 92.8527 227.952 94.8839 229.868 96.417C231.861 97.9501 234.353 98.7168 237.343 98.7168C239.336 98.7934 241.291 98.4106 243.207 97.5674C245.2 96.6475 247.002 95.4208 248.611 93.8877C250.298 92.3545 251.715 90.5908 252.865 88.5977C254.015 86.528 254.782 84.3436 255.165 82.0439C255.472 79.821 255.434 77.7127 255.051 75.7197C254.668 73.7266 253.939 71.9628 252.865 70.4297C251.869 68.8969 250.604 67.6708 249.071 66.751C247.615 65.8311 245.851 65.3325 243.781 65.2559Z" stroke="white" stroke-width="56" stroke-linejoin="round" mask="url(#path-1-outside-1_1_591)"/>
<path fill-rule="evenodd" clip-rule="evenodd" d="M399.558 54.4473C404.847 54.4473 409.37 55.7116 413.126 58.2412C416.959 60.6942 419.795 64.029 421.635 68.2451C423.475 72.3846 424.049 76.9845 423.359 82.0439C422.669 87.2566 420.83 91.9328 417.84 96.0723C414.85 100.212 411.094 103.508 406.571 105.961C402.049 108.337 397.104 109.525 391.738 109.525C386.526 109.525 382.003 108.299 378.17 105.846C374.337 103.393 371.501 100.097 369.661 95.957C367.821 91.7409 367.246 87.1033 367.936 82.0439C368.626 76.7546 370.427 72.0399 373.34 67.9004C376.33 63.7609 380.087 60.5033 384.609 58.127C389.209 55.674 394.192 54.4473 399.558 54.4473ZM398.523 65.3711C395.533 65.2944 392.734 66.0225 390.128 67.5557C387.522 69.0887 385.337 71.12 383.574 73.6494C381.888 76.1791 380.815 78.9776 380.355 82.0439C379.971 84.8801 380.201 87.5632 381.044 90.0928C381.887 92.6223 383.267 94.692 385.184 96.3018C387.177 97.8349 389.669 98.6016 392.658 98.6016C395.725 98.6015 398.561 97.8735 401.167 96.417C403.773 94.9605 405.92 92.9672 407.607 90.4375C409.37 87.8312 410.482 85.0335 410.941 82.0439C411.325 79.1311 411.094 76.4481 410.251 73.9951C409.408 71.4654 407.989 69.395 405.996 67.7852C404.003 66.1756 401.512 65.3711 398.523 65.3711Z" stroke="black" stroke-width="56" stroke-linejoin="round" mask="url(#path-1-outside-1_1_591)"/>
<path fill-rule="evenodd" clip-rule="evenodd" d="M399.558 54.4473C404.847 54.4473 409.37 55.7116 413.126 58.2412C416.959 60.6942 419.795 64.029 421.635 68.2451C423.475 72.3846 424.049 76.9845 423.359 82.0439C422.669 87.2566 420.83 91.9328 417.84 96.0723C414.85 100.212 411.094 103.508 406.571 105.961C402.049 108.337 397.104 109.525 391.738 109.525C386.526 109.525 382.003 108.299 378.17 105.846C374.337 103.393 371.501 100.097 369.661 95.957C367.821 91.7409 367.246 87.1033 367.936 82.0439C368.626 76.7546 370.427 72.0399 373.34 67.9004C376.33 63.7609 380.087 60.5033 384.609 58.127C389.209 55.674 394.192 54.4473 399.558 54.4473ZM398.523 65.3711C395.533 65.2944 392.734 66.0225 390.128 67.5557C387.522 69.0887 385.337 71.12 383.574 73.6494C381.888 76.1791 380.815 78.9776 380.355 82.0439C379.971 84.8801 380.201 87.5632 381.044 90.0928C381.887 92.6223 383.267 94.692 385.184 96.3018C387.177 97.8349 389.669 98.6016 392.658 98.6016C395.725 98.6015 398.561 97.8735 401.167 96.417C403.773 94.9605 405.92 92.9672 407.607 90.4375C409.37 87.8312 410.482 85.0335 410.941 82.0439C411.325 79.1311 411.094 76.4481 410.251 73.9951C409.408 71.4654 407.989 69.395 405.996 67.7852C404.003 66.1756 401.512 65.3711 398.523 65.3711Z" stroke="white" stroke-width="56" stroke-linejoin="round" mask="url(#path-1-outside-1_1_591)"/>
<path d="M343.623 54.4473C347.609 54.4473 350.637 55.405 352.707 57.3213C354.777 59.161 356.118 61.6144 356.732 64.6807C357.345 67.747 357.422 71.1588 356.962 74.915L351.327 108.49H338.909L344.658 76.2939C344.888 74.2244 344.888 72.3079 344.658 70.5449C344.505 68.7054 343.969 67.2489 343.049 66.1758C342.129 65.1026 340.596 64.5655 338.449 64.5654C336.226 64.5654 334.233 65.064 332.47 66.0605C330.707 67.0571 329.25 68.4371 328.101 70.2002C327.027 71.8867 326.298 73.8414 325.915 76.0645L320.397 108.49H308.207L313.842 76.2939C314.072 74.2244 314.072 72.3079 313.842 70.5449C313.689 68.7054 313.152 67.2489 312.232 66.1758C311.313 65.1026 309.779 64.5655 307.633 64.5654C305.487 64.5654 303.532 65.0641 301.769 66.0605C300.082 66.9804 298.664 68.2834 297.514 69.9697C296.441 71.5795 295.712 73.4967 295.329 75.7197L289.694 108.49H277.506L286.705 55.5967H298.778L297.629 62.9561C298.779 61.193 300.12 59.6982 301.653 58.4717C303.187 57.1685 304.873 56.1714 306.713 55.4814C308.553 54.7916 310.584 54.4473 312.807 54.4473C315.413 54.4473 317.598 54.8687 319.361 55.7119C321.201 56.4785 322.657 57.5904 323.731 59.0469C324.88 60.5033 325.647 62.2277 326.03 64.2207C328.177 61.2312 330.706 58.8549 333.619 57.0918C336.609 55.3287 339.944 54.4473 343.623 54.4473Z" stroke="black" stroke-width="56" stroke-linejoin="round" mask="url(#path-1-outside-1_1_591)"/>
<path d="M343.623 54.4473C347.609 54.4473 350.637 55.405 352.707 57.3213C354.777 59.161 356.118 61.6144 356.732 64.6807C357.345 67.747 357.422 71.1588 356.962 74.915L351.327 108.49H338.909L344.658 76.2939C344.888 74.2244 344.888 72.3079 344.658 70.5449C344.505 68.7054 343.969 67.2489 343.049 66.1758C342.129 65.1026 340.596 64.5655 338.449 64.5654C336.226 64.5654 334.233 65.064 332.47 66.0605C330.707 67.0571 329.25 68.4371 328.101 70.2002C327.027 71.8867 326.298 73.8414 325.915 76.0645L320.397 108.49H308.207L313.842 76.2939C314.072 74.2244 314.072 72.3079 313.842 70.5449C313.689 68.7054 313.152 67.2489 312.232 66.1758C311.313 65.1026 309.779 64.5655 307.633 64.5654C305.487 64.5654 303.532 65.0641 301.769 66.0605C300.082 66.9804 298.664 68.2834 297.514 69.9697C296.441 71.5795 295.712 73.4967 295.329 75.7197L289.694 108.49H277.506L286.705 55.5967H298.778L297.629 62.9561C298.779 61.193 300.12 59.6982 301.653 58.4717C303.187 57.1685 304.873 56.1714 306.713 55.4814C308.553 54.7916 310.584 54.4473 312.807 54.4473C315.413 54.4473 317.598 54.8687 319.361 55.7119C321.201 56.4785 322.657 57.5904 323.731 59.0469C324.88 60.5033 325.647 62.2277 326.03 64.2207C328.177 61.2312 330.706 58.8549 333.619 57.0918C336.609 55.3287 339.944 54.4473 343.623 54.4473Z" stroke="white" stroke-width="56" stroke-linejoin="round" mask="url(#path-1-outside-1_1_591)"/>
</svg>
