<svg width="523" height="226" viewBox="0 0 523 226" fill="none" xmlns="http://www.w3.org/2000/svg">
<path d="M61.8828 79.5918C71.7764 76.9408 80.1344 76.0092 86.9561 76.7979C93.9061 77.5521 100.515 79.0868 106.781 81.4014L118.453 124.96C114.903 123.019 110.985 121.245 106.699 119.64C102.541 117.999 97.943 117.028 92.9043 116.726C87.831 116.295 82.0818 116.941 75.6572 118.662C69.3612 120.349 63.8886 123.055 59.2402 126.779C54.7205 130.469 51.4911 135.122 49.5527 140.736C47.7085 146.188 47.716 152.384 49.5752 159.322C51.4344 166.261 54.5428 171.694 58.9004 175.622C63.352 179.387 68.4576 181.737 74.2168 182.673C80.1047 183.574 86.1971 183.181 92.4932 181.494C98.9177 179.773 104.219 177.457 108.397 174.547C112.575 171.637 116.072 168.497 118.887 165.126C121.796 161.592 124.302 158.097 126.406 154.642L138.078 198.2C133.774 203.209 128.801 207.778 123.159 211.906C117.68 216.129 109.993 219.566 100.1 222.217C88.407 225.35 77.2946 226.537 66.7627 225.778C56.2307 225.02 46.7158 222.405 38.2188 217.934C29.7217 213.462 22.4395 207.357 16.3721 199.618C10.3046 191.879 5.82466 182.613 2.93262 171.819C0.0406981 161.026 -0.712153 150.762 0.672851 141.026C2.05791 131.291 5.31159 122.362 10.4346 114.241C15.5575 106.12 22.4899 99.0987 31.2314 93.1758C39.973 87.2529 50.1903 82.7248 61.8828 79.5918Z" fill="white"/>
<path fill-rule="evenodd" clip-rule="evenodd" d="M452.77 118.151C463.948 115.156 473.793 114.378 482.304 115.815C490.908 117.09 498.034 120.552 503.679 126.2C509.418 131.686 513.578 139.248 516.16 148.885C516.608 150.555 517.055 152.225 517.503 153.896C517.916 155.437 518.184 156.949 518.306 158.432L451.943 176.213C452.564 177.519 453.25 178.713 454.001 179.794C456.112 182.533 458.547 184.429 461.308 185.479C464.196 186.496 467.376 186.539 470.845 185.609C475.47 184.37 479.137 182.63 481.842 180.391C484.512 178.023 486.24 175.218 487.024 171.979L522.777 168.182C520.571 178.964 515.864 187.869 508.657 194.896C501.545 201.759 491.821 206.843 479.486 210.148C467.922 213.247 457.465 214.052 448.114 212.563C438.893 211.041 431.121 207.477 424.799 201.872C418.571 196.104 414.166 188.401 411.584 178.765C408.967 168.999 408.867 160.143 411.282 152.197C413.663 144.123 418.355 137.22 425.357 131.487C432.325 125.627 441.463 121.181 452.77 118.151ZM465.021 141.517C462.913 140.842 460.574 140.85 458.004 141.538C454.535 142.468 451.931 144.06 450.194 146.315C448.423 148.443 447.488 151.379 447.39 155.123C447.356 156.027 447.372 156.987 447.438 158.002L473.866 150.921C473.085 148.699 472.063 146.838 470.797 145.34C469.184 143.431 467.259 142.157 465.021 141.517Z" fill="white"/>
<path fill-rule="evenodd" clip-rule="evenodd" d="M194.395 92.9092C206.659 92.9092 217.622 95.1322 227.28 99.5781C236.939 104.024 244.529 110.387 250.048 118.666C254.673 125.603 257.359 133.671 258.108 142.869V119.022H295.022V132.791C297.55 128.002 301.075 124.144 305.598 121.218C310.12 118.291 315.707 116.828 322.358 116.828C329.941 116.828 335.727 118.026 339.718 120.42C343.841 122.681 346.769 126.139 348.498 130.795C351.957 126.538 356.213 123.146 361.268 120.619C366.322 118.092 371.976 116.828 378.229 116.828C385.944 116.828 391.797 118.158 395.788 120.818C399.912 123.479 402.772 127.337 404.368 132.392C405.964 137.446 406.762 143.632 406.762 150.948V210.81H367.853V154.939C367.853 150.816 367.254 147.623 366.057 145.361C364.859 142.967 362.731 141.77 359.672 141.77C358.076 141.77 356.612 142.236 355.282 143.167C353.952 144.098 352.887 145.561 352.089 147.557C351.291 149.419 350.893 151.88 350.893 154.939V210.81H311.982V154.939C311.982 150.816 311.384 147.623 310.187 145.361C308.989 142.967 306.861 141.77 303.802 141.77C302.205 141.77 300.742 142.236 299.412 143.167C298.082 144.098 297.018 145.561 296.22 147.557C295.422 149.419 295.022 151.88 295.022 154.939V210.81H258.108V153.729C257.359 162.819 254.673 170.832 250.048 177.77C244.529 186.048 236.939 192.411 227.28 196.857C217.622 201.303 206.66 203.526 194.395 203.526C182.129 203.526 171.167 201.304 161.508 196.857C151.849 192.411 144.26 186.048 138.741 177.77C133.222 169.491 130.462 159.678 130.462 148.333C130.462 143.285 130.994 138.547 132.058 134.119C132.417 134.139 132.78 134.15 133.145 134.15C138.869 134.15 144.006 131.639 147.518 127.66C151.029 131.64 156.167 134.15 161.892 134.15C172.476 134.15 181.056 125.571 181.056 114.986C181.056 114.148 181.002 113.321 180.897 112.511C186.712 109.22 190.639 102.98 190.639 95.8213C190.639 94.8591 190.567 93.9133 190.43 92.9893C191.736 92.9364 193.057 92.9092 194.395 92.9092ZM194.395 128.555C191.328 128.555 188.415 129.321 185.655 130.854C183.049 132.388 180.902 134.612 179.216 137.524C177.53 140.437 176.687 144.041 176.687 148.333C176.687 152.626 177.53 156.229 179.216 159.142C180.902 162.054 183.049 164.277 185.655 165.811C188.415 167.19 191.328 167.881 194.395 167.881C197.461 167.881 200.297 167.19 202.903 165.811C205.663 164.277 207.886 162.054 209.572 159.142C211.259 156.229 212.103 152.626 212.103 148.333C212.102 144.04 211.259 140.437 209.572 137.524C207.886 134.612 205.663 132.388 202.903 130.854C200.297 129.322 197.461 128.555 194.395 128.555Z" fill="white"/>
<path d="M153.995 56.458L185.731 0H201.484L149.855 85.0898L124.788 0H139.852L153.995 56.458Z" fill="white"/>
<path fill-rule="evenodd" clip-rule="evenodd" d="M213.941 26.4473C217.544 26.4473 220.535 27.2139 222.911 28.7471C225.364 30.2802 227.319 32.3498 228.775 34.9561C229.334 35.9551 229.812 37.0051 230.213 38.1055L231.995 27.5967H244.068L234.869 80.4902H223.025L224.546 71.5205C224.027 72.196 223.482 72.8483 222.911 73.4766C220.688 76.0063 218.081 77.9996 215.092 79.4561C212.179 80.8359 208.959 81.5254 205.433 81.5254C200.527 81.5254 196.388 80.2987 193.015 77.8457C189.718 75.316 187.304 71.9813 185.771 67.8418C184.237 63.6257 183.815 59.0265 184.505 54.0439C185.271 48.8312 187.035 44.1551 189.795 40.0156C192.631 35.7996 196.157 32.4647 200.373 30.0117C204.589 27.5588 209.112 26.3707 213.941 26.4473ZM215.781 37.2559C212.792 37.1793 209.955 37.8688 207.272 39.3252C204.666 40.7817 202.443 42.8136 200.604 45.4199C198.84 48.0263 197.691 50.901 197.154 54.0439C196.771 56.9569 196.962 59.7169 197.729 62.3232C198.572 64.8527 199.952 66.8839 201.868 68.417C203.861 69.9501 206.353 70.7168 209.343 70.7168C211.336 70.7934 213.291 70.4106 215.207 69.5674C217.2 68.6475 219.002 67.4208 220.611 65.8877C222.298 64.3545 223.715 62.5908 224.865 60.5977C226.015 58.528 226.782 56.3436 227.165 54.0439C227.472 51.821 227.434 49.7127 227.051 47.7197C226.667 45.7266 225.938 43.9628 224.865 42.4297C223.869 40.8969 222.604 39.6708 221.071 38.751C219.615 37.8311 217.851 37.3325 215.781 37.2559Z" fill="white"/>
<path fill-rule="evenodd" clip-rule="evenodd" d="M371.558 26.4473C376.847 26.4473 381.37 27.7116 385.126 30.2412C388.959 32.6942 391.795 36.029 393.635 40.2451C395.475 44.3846 396.049 48.9845 395.359 54.0439C394.669 59.2566 392.829 63.9328 389.84 68.0723C386.85 72.2117 383.094 75.5079 378.571 77.9609C374.049 80.3373 369.104 81.5254 363.738 81.5254C358.526 81.5254 354.003 80.2988 350.17 77.8457C346.337 75.3927 343.501 72.0965 341.661 67.957C339.821 63.7409 339.246 59.1033 339.936 54.0439C340.625 48.7546 342.427 44.0399 345.34 39.9004C348.329 35.7609 352.087 32.5033 356.609 30.127C361.209 27.674 366.192 26.4473 371.558 26.4473ZM370.522 37.3711C367.533 37.2944 364.734 38.0225 362.128 39.5557C359.522 41.0887 357.337 43.12 355.574 45.6494C353.888 48.1791 352.814 50.9776 352.354 54.0439C351.971 56.8801 352.201 59.5632 353.044 62.0928C353.887 64.6223 355.267 66.692 357.184 68.3018C359.177 69.8349 361.669 70.6016 364.658 70.6016C367.724 70.6015 370.561 69.8735 373.167 68.417C375.773 66.9605 377.92 64.9672 379.606 62.4375C381.369 59.8312 382.481 57.0335 382.941 54.0439C383.325 51.1311 383.094 48.4481 382.251 45.9951C381.408 43.4654 379.989 41.395 377.996 39.7852C376.003 38.1756 373.512 37.3711 370.522 37.3711Z" fill="white"/>
<path d="M315.623 26.4473C319.609 26.4473 322.637 27.405 324.707 29.3213C326.777 31.161 328.118 33.6144 328.731 36.6807C329.345 39.747 329.422 43.1588 328.962 46.915L323.327 80.4902H310.909L316.658 48.2939C316.888 46.2244 316.888 44.3079 316.658 42.5449C316.505 40.7054 315.969 39.2489 315.049 38.1758C314.129 37.1026 312.596 36.5655 310.449 36.5654C308.226 36.5654 306.233 37.064 304.47 38.0605C302.707 39.0571 301.25 40.4371 300.101 42.2002C299.027 43.8867 298.298 45.8414 297.915 48.0645L292.396 80.4902H280.207L285.842 48.2939C286.072 46.2244 286.072 44.3079 285.842 42.5449C285.688 40.7054 285.152 39.2489 284.232 38.1758C283.313 37.1026 281.779 36.5655 279.633 36.5654C277.487 36.5654 275.532 37.0641 273.769 38.0605C272.082 38.9804 270.664 40.2834 269.514 41.9697C268.44 43.5795 267.712 45.4967 267.329 47.7197L261.694 80.4902H249.506L258.705 27.5967H270.778L269.629 34.9561C270.779 33.193 272.12 31.6982 273.653 30.4717C275.186 29.1685 276.873 28.1714 278.713 27.4814C280.552 26.7916 282.584 26.4473 284.807 26.4473C287.413 26.4473 289.598 26.8687 291.361 27.7119C293.201 28.4785 294.657 29.5904 295.73 31.0469C296.88 32.5033 297.647 34.2277 298.03 36.2207C300.177 33.2312 302.706 30.8549 305.619 29.0918C308.609 27.3287 311.944 26.4473 315.623 26.4473Z" fill="white"/>
</svg>
